HIERARCHY
ROOT Hip
{
	OFFSET 0 1.131 0.0052
	CHANNELS 6 Xposition Yposition Zposition Xrotation Yrotation Zrotation
	JOINT Abdomen
	{
		OFFSET 0 -0.047353 -0.05
		CHANNELS 3 Xrotation Zrotation Yrotation
		JOINT Chest
		{
			OFFSET 0 0.132153 0.007439
			CHANNELS 3 Xrotation Zrotation Yrotation
			JOINT Neck
			{
				OFFSET 0 0.3078 0.006161
				CHANNELS 3 Xrotation Zrotation Yrotation
				JOINT Head_comp
				{
					OFFSET 0 0.0884 0.013
					CHANNELS 3 Xrotation Yrotation Zrotation
					End Site
					{
						OFFSET -0 0.156 0.0624
					}
				}
			}
			JOINT Left_Collar
			{
				OFFSET 0.02282 0.250342 0.017193
				CHANNELS 2 Yrotation Zrotation
				JOINT Left_Shoulder
				{
					OFFSET 0.15421 0 0
					CHANNELS 3 Xrotation Yrotation Zrotation
					JOINT Left_Forearm
					{
						OFFSET 0.265212 0 0
						CHANNELS 2 Yrotation Xrotation
						JOINT Left_Hand
						{
							OFFSET 0.27571 0 0
							CHANNELS 2 Zrotation Yrotation
							JOINT L1ProxPhalanx
							{
								OFFSET 0.014142 0.001733 0.014142
								CHANNELS 3 Yrotation Zrotation Xrotation
								JOINT L1MidPhalanx
								{
									OFFSET 0.04 0 0
									CHANNELS 1 Zrotation
									JOINT L1DistPhalanx
									{
										OFFSET 0.035 0 0
										CHANNELS 1 Zrotation
										End Site
										{
											OFFSET 0.029 -0 -0
										}
									}
								}
							}
							JOINT L2ProxPhalanx
							{
								OFFSET 0.0821037 0.001578 0.0219996
								CHANNELS 2 Yrotation Zrotation
								JOINT L2MidPhalanx
								{
									OFFSET 0.04 0 0
									CHANNELS 1 Zrotation
									JOINT L2DistPhalanx
									{
										OFFSET 0.028 0 0
										CHANNELS 1 Zrotation
										End Site
										{
											OFFSET 0.02 -0 -0
										}
									}
								}
							}
							JOINT L3ProxPhalanx
							{
								OFFSET 0.083 0 0
								CHANNELS 2 Yrotation Zrotation
								JOINT L3MidPhalanx
								{
									OFFSET 0.053 0 0
									CHANNELS 1 Zrotation
									JOINT L3DistPhalanx
									{
										OFFSET 0.03 0 0
										CHANNELS 1 Zrotation
										End Site
										{
											OFFSET 0.023 -0 -0
										}
									}
								}
							}
							JOINT L4ProxPhalanx
							{
								OFFSET 0.077274 -0.000761 -0.0207055
								CHANNELS 2 Yrotation Zrotation
								JOINT L4MidPhalanx
								{
									OFFSET 0.05 0 0
									CHANNELS 1 Zrotation
									JOINT L4DistPhalanx
									{
										OFFSET 0.03 0 0
										CHANNELS 1 Zrotation
										End Site
										{
											OFFSET 0.023 -0 -0
										}
									}
								}
							}
							JOINT L5ProxPhalanx
							{
								OFFSET 0.0675499 -0.001644 -0.039
								CHANNELS 2 Yrotation Zrotation
								JOINT L5MidPhalanx
								{
									OFFSET 0.04 0 0
									CHANNELS 1 Zrotation
									JOINT L5DistPhalanx
									{
										OFFSET 0.021 0 0
										CHANNELS 1 Zrotation
										End Site
										{
											OFFSET 0.022 -0 -0
										}
									}
								}
							}
						}
					}
				}
			}
			JOINT Right_Collar
			{
				OFFSET -0.02282 0.250342 0.017193
				CHANNELS 2 Yrotation Zrotation
				JOINT Right_Shoulder
				{
					OFFSET -0.15421 0 0
					CHANNELS 3 Xrotation Yrotation Zrotation
					JOINT Right_Forearm
					{
						OFFSET -0.265212 0 0
						CHANNELS 2 Yrotation Xrotation
						JOINT Right_Hand
						{
							OFFSET -0.27571 3e-006 0
							CHANNELS 2 Zrotation Yrotation
							JOINT R1ProxPhalanx
							{
								OFFSET -0.014142 0.001733 0.014142
								CHANNELS 3 Yrotation Zrotation Xrotation
								JOINT R1MidPhalanx
								{
									OFFSET -0.04 0 0
									CHANNELS 1 Zrotation
									JOINT R1DistPhalanx
									{
										OFFSET -0.035 0 0
										CHANNELS 1 Zrotation
										End Site
										{
											OFFSET -0.029 -0 -0
										}
									}
								}
							}
							JOINT R2ProxPhalanx
							{
								OFFSET -0.0821037 0.001578 0.0219996
								CHANNELS 2 Yrotation Zrotation
								JOINT R2MidPhalanx
								{
									OFFSET -0.04 0 0
									CHANNELS 1 Zrotation
									JOINT R2DistPhalanx
									{
										OFFSET -0.028 0 0
										CHANNELS 1 Zrotation
										End Site
										{
											OFFSET -0.02 -0 -0
										}
									}
								}
							}
							JOINT R3ProxPhalanx
							{
								OFFSET -0.083 0 0
								CHANNELS 2 Yrotation Zrotation
								JOINT R3MidPhalanx
								{
									OFFSET -0.053 0 0
									CHANNELS 1 Zrotation
									JOINT R3DistPhalanx
									{
										OFFSET -0.03 0 0
										CHANNELS 1 Zrotation
										End Site
										{
											OFFSET -0.023 -0 -0
										}
									}
								}
							}
							JOINT R4ProxPhalanx
							{
								OFFSET -0.077274 -0.000761 -0.0207055
								CHANNELS 2 Yrotation Zrotation
								JOINT R4MidPhalanx
								{
									OFFSET -0.05 0 0
									CHANNELS 1 Zrotation
									JOINT R4DistPhalanx
									{
										OFFSET -0.03 0 0
										CHANNELS 1 Zrotation
										End Site
										{
											OFFSET -0.023 -0 -0
										}
									}
								}
							}
							JOINT R5ProxPhalanx
							{
								OFFSET -0.0675499 -0.001644 -0.039
								CHANNELS 2 Yrotation Zrotation
								JOINT R5MidPhalanx
								{
									OFFSET -0.04 0 0
									CHANNELS 1 Zrotation
									JOINT R5DistPhalanx
									{
										OFFSET -0.021 0 0
										CHANNELS 1 Zrotation
										End Site
										{
											OFFSET -0.022 -0 -0
										}
									}
								}
							}
						}
					}
				}
			}
		}
	}
	JOINT Left_Thigh
	{
		OFFSET 0.1118 -0.1612 -0.0442
		CHANNELS 3 Xrotation Zrotation Yrotation
		JOINT Left_Shin
		{
			OFFSET 0 -0.477856 0
			CHANNELS 1 Xrotation
			JOINT Left_Foot
			{
				OFFSET 0 -0.431952 0
				CHANNELS 2 Xrotation Zrotation
				JOINT Left_Toe
				{
					OFFSET 0 -0.0442 0.119
					CHANNELS 1 Xrotation
					End Site
					{
						OFFSET -0 -0 0.07
					}
				}
			}
		}
	}
	JOINT Right_Thigh
	{
		OFFSET -0.1118 -0.1612 -0.0442
		CHANNELS 3 Xrotation Zrotation Yrotation
		JOINT Right_Shin
		{
			OFFSET 0 -0.477856 0
			CHANNELS 1 Xrotation
			JOINT Right_Foot
			{
				OFFSET 0 -0.431952 0
				CHANNELS 2 Xrotation Zrotation
				JOINT Right_Toe
				{
					OFFSET 0 -0.0442 0.119
					CHANNELS 1 Xrotation
					End Site
					{
						OFFSET -0 -0 0.07
					}
				}
			}
		}
	}
}
MOTION
Frames: 15
Frame Time: 0.009975
-0.0968154 -0.060187 0.0504101 1.02869e-012 6.40943e-008 -5.10961e-006 0 0 0 0 0 0 0 0 0 -0.713146 0.278199 0 0 -3.88717 30.6237 -11.2182 -67.4665 -82.6896 0 0 0 -36.7832 -29.9624 77.4898 -4.76427 -12.2444 -6.63439 -16.4575 -31.3511 -13.5114 -0.647911 -24.507 -18.2419 -18.0941 9.02909 -22.0218 -38.2405 -19.3412 17.3445 -18.4185 -40.523 -37.4487 -2.0324 14.9249 -12.0919 30.1406 33.2095 39.2282 16.5092 -22.5732 9.46498 84.3997 68.6531 75.9787 10.5181 7.0483 4.25587 11.7832 15.7028 12.7197 2.26771 -0.549352 5.54474 1.13039 4.85192 -1.59248 10.6497 6.7326 -5.99113 -4.32967 44.9147 -29.872 0.707266 -0.943706 -0.0116493 0.0240216 -0.731192 0.943783 0 0.718672 -0.943704 -0.0118372 1.70755e-006 -0.718576 0.943783 0 
-0.0968154 -0.060187 0.0504101 1.02869e-012 6.40943e-008 -5.10961e-006 0 0 0 0 0 0 0 0 0 -0.713146 0.278199 0 0 -3.88717 30.6237 -11.2182 -67.4665 -82.6896 0 0 0 -36.7832 -29.9624 77.4898 -4.76427 -12.2444 -6.63439 -16.4575 -31.3511 -13.5114 -0.647911 -24.507 -18.2419 -18.0941 9.02909 -22.0218 -38.2405 -19.3412 17.3445 -18.4185 -40.523 -37.4487 -2.0324 14.9249 -12.0919 30.1406 33.2095 39.2282 16.5092 -22.5732 9.46498 84.3997 68.6531 75.9787 10.5181 7.0483 4.25587 11.7832 15.7028 12.7197 2.26771 -0.549352 5.54474 1.13039 4.85192 -1.59248 10.6497 6.7326 -5.99113 -4.32967 44.9147 -29.872 0.707266 -0.943706 -0.0116493 0.0240216 -0.731192 0.943783 0 0.718672 -0.943704 -0.0118372 1.70755e-006 -0.718576 0.943783 0 
-0.101405 -0.0600538 0.0409381 -4.22347e-012 1.08857e-008 -5.0841e-006 0 -0 0 0 -0 0 0 -0 0 -0.710381 0.291115 -9.06893e-006 2.02229 -14.8502 -12.6949 -30.097 -35.0546 -38.2711 16.4298 22.4606 -9.41826 -84.0993 -68.4438 76.1675 -10.6405 -7.11306 -4.23973 -11.8742 -15.8243 -12.7311 -2.25668 0.38664 -5.71702 -1.21474 -4.82107 1.42472 -10.7964 -6.78893 5.99118 4.18802 -44.8601 29.6227 -2.02229 14.8502 -12.6949 30.097 35.0546 38.2711 16.4298 -22.4606 9.41826 84.0993 68.4438 76.1675 10.6405 7.11306 4.23973 11.8742 15.8243 12.7311 2.25668 -0.38664 5.71702 1.21474 4.82107 -1.42472 10.7964 6.78893 -5.99118 -4.18802 44.8601 -29.6227 0.110715 -0.654622 -0.00126812 0.0239015 -0.13461 0.654628 0 0.122064 -0.654622 -0.0013981 1.69901e-006 -0.122058 0.654628 0 
-0.10135 -0.0600528 0.040171 -4.24469e-012 1.09404e-008 -5.10965e-006 0 -0 0 0 -0 0 0 -0 0 -0.712055 0.290874 -2.13035e-010 2.0324 -14.9249 -12.0963 -30.1416 -33.2212 -39.2225 16.5092 22.5732 -9.46498 -84.3997 -68.6531 75.9787 -10.5181 -7.0483 -4.25587 -11.7832 -15.7028 -12.7197 -2.26771 0.549352 -5.54474 -1.13039 -4.85192 1.59248 -10.6497 -6.7326 5.99113 4.32967 -44.9147 29.872 -2.0324 14.9249 -12.0963 30.1416 33.2212 39.2225 16.5092 -22.5732 9.46498 84.3997 68.6531 75.9787 10.5181 7.0483 4.25587 11.7832 15.7028 12.7197 2.26771 -0.549352 5.54474 1.13039 4.85192 -1.59248 10.6497 6.7326 -5.99113 -4.32967 44.9147 -29.872 0.0623446 -0.658113 -0.000716095 0.0240216 -0.0863621 0.658119 0 0.0737501 -0.658113 -0.000847101 1.70755e-006 -0.073747 0.658119 0 
-0.10135 -0.0600528 0.0401711 4.48663e-012 6.54409e-009 -5.10966e-006 0 -0 0 0 -0 0 0 -0 0 -0.712032 0.290856 -3.62826e-015 2.0324 -14.9249 -12.0919 -30.1406 -33.2095 -39.2282 16.5092 22.5732 -9.46498 -84.3997 -68.6531 75.9787 -10.5181 -7.0483 -4.25587 -11.7832 -15.7028 -12.7197 -2.26771 0.549352 -5.54474 -1.13039 -4.85192 1.59248 -10.6497 -6.7326 5.99113 4.32967 -44.9147 29.872 -2.0324 14.9249 -12.0919 30.1406 33.2095 39.2282 16.5092 -22.5732 9.46498 84.3997 68.6531 75.9787 10.5181 7.0483 4.25587 11.7832 15.7028 12.7197 2.26771 -0.549352 5.54474 1.13039 4.85192 -1.59248 10.6497 6.7326 -5.99113 -4.32967 44.9147 -29.872 0.0623528 -0.658117 -0.000716194 0.0240216 -0.0863703 0.658122 0 0.0737584 -0.658117 -0.000847198 1.70755e-006 -0.0737552 0.658122 0 
-0.10135 -0.0600528 0.0401713 -1.09195e-011 6.57814e-009 -5.10966e-006 0 -0 0 0 -0 0 0 -0 0 -0.712032 0.290856 -3.88256e-019 2.0324 -14.9249 -12.0919 -30.1406 -33.2095 -39.2282 16.5092 22.5732 -9.46498 -84.3997 -68.6531 75.9787 -10.5181 -7.0483 -4.25587 -11.7832 -15.7028 -12.7197 -2.26771 0.549352 -5.54474 -1.13039 -4.85192 1.59248 -10.6497 -6.7326 5.99113 4.32967 -44.9147 29.872 -2.0324 14.9249 -12.0919 30.1406 33.2095 39.2282 16.5092 -22.5732 9.46498 84.3997 68.6531 75.9787 10.5181 7.0483 4.25587 11.7832 15.7028 12.7197 2.26771 -0.549352 5.54474 1.13039 4.85192 -1.59248 10.6497 6.7326 -5.99113 -4.32967 44.9147 -29.872 0.06236 -0.658117 -0.000716277 0.0240216 -0.0863775 0.658122 0 0.0737656 -0.658117 -0.000847281 1.70755e-006 -0.0737624 0.658122 0 
-0.10135 -0.0600528 0.0401713 5.06814e-012 6.57844e-009 -5.10966e-006 0 -0 0 0 -0 0 0 -0 0 -0.712032 0.290856 -0 2.0324 -14.9249 -12.0919 -30.1406 -33.2095 -39.2282 16.5092 22.5732 -9.46498 -84.3997 -68.6531 75.9787 -10.5181 -7.0483 -4.25587 -11.7832 -15.7028 -12.7197 -2.26771 0.549352 -5.54474 -1.13039 -4.85192 1.59248 -10.6497 -6.7326 5.99113 4.32967 -44.9147 29.872 -2.0324 14.9249 -12.0919 30.1406 33.2095 39.2282 16.5092 -22.5732 9.46498 84.3997 68.6531 75.9787 10.5181 7.0483 4.25587 11.7832 15.7028 12.7197 2.26771 -0.549352 5.54474 1.13039 4.85192 -1.59248 10.6497 6.7326 -5.99113 -4.32967 44.9147 -29.872 0.0623601 -0.658117 -0.000716277 0.0240216 -0.0863776 0.658122 0 0.0737656 -0.658117 -0.000847282 1.70755e-006 -0.0737625 0.658122 0 
-0.10135 -0.0600528 0.0401713 -8.91709e-012 6.57845e-009 -5.10966e-006 0 -0 0 0 -0 0 0 -0 0 -0.712032 0.290856 -0 2.0324 -14.9249 -12.0919 -30.1406 -33.2095 -39.2282 16.5092 22.5732 -9.46498 -84.3997 -68.6531 75.9787 -10.5181 -7.0483 -4.25587 -11.7832 -15.7028 -12.7197 -2.26771 0.549352 -5.54474 -1.13039 -4.85192 1.59248 -10.6497 -6.7326 5.99113 4.32967 -44.9147 29.872 -2.0324 14.9249 -12.0919 30.1406 33.2095 39.2282 16.5092 -22.5732 9.46498 84.3997 68.6531 75.9787 10.5181 7.0483 4.25587 11.7832 15.7028 12.7197 2.26771 -0.549352 5.54474 1.13039 4.85192 -1.59248 10.6497 6.7326 -5.99113 -4.32967 44.9147 -29.872 0.0623601 -0.658117 -0.000716278 0.0240216 -0.0863776 0.658122 0 0.0737656 -0.658117 -0.000847282 1.70755e-006 -0.0737625 0.658122 0 
-0.10135 -0.0600528 0.0401713 -5.36192e-012 6.57845e-009 -5.10966e-006 0 -0 0 0 -0 0 0 -0 0 -0.712032 0.290856 -3.88256e-019 2.0324 -14.9249 -12.0919 -30.1406 -33.2095 -39.2282 16.5092 22.5732 -9.46498 -84.3997 -68.6531 75.9787 -10.5181 -7.0483 -4.25587 -11.7832 -15.7028 -12.7197 -2.26771 0.549352 -5.54474 -1.13039 -4.85192 1.59248 -10.6497 -6.7326 5.99113 4.32967 -44.9147 29.872 -2.0324 14.9249 -12.0919 30.1406 33.2095 39.2282 16.5092 -22.5732 9.46498 84.3997 68.6531 75.9787 10.5181 7.0483 4.25587 11.7832 15.7028 12.7197 2.26771 -0.549352 5.54474 1.13039 4.85192 -1.59248 10.6497 6.7326 -5.99113 -4.32967 44.9147 -29.872 0.0623601 -0.658117 -0.000716278 0.0240216 -0.0863776 0.658122 0 0.0737656 -0.658117 -0.000847282 2.41484e-006 -0.0737632 0.658122 0 
-0.10135 -0.0600528 0.0401713 -8.55038e-012 6.57845e-009 -5.10966e-006 0 -0 0 0 -0 0 0 -0 0 -0.712032 0.290856 -0 2.0324 -14.9249 -12.0919 -30.1406 -33.2095 -39.2282 16.5092 22.5732 -9.46498 -84.3997 -68.6531 75.9787 -10.5181 -7.0483 -4.25587 -11.7832 -15.7028 -12.7197 -2.26771 0.549352 -5.54474 -1.13039 -4.85192 1.59248 -10.6497 -6.7326 5.99113 4.32967 -44.9147 29.872 -2.0324 14.9249 -12.0919 30.1406 33.2095 39.2282 16.5092 -22.5732 9.46498 84.3997 68.6531 75.9787 10.5181 7.0483 4.25587 11.7832 15.7028 12.7197 2.26771 -0.549352 5.54474 1.13039 4.85192 -1.59248 10.6497 6.7326 -5.99113 -4.32967 44.9147 -29.872 0.0623601 -0.658117 -0.000716278 0.0240216 -0.0863776 0.658122 0 0.0737656 -0.658117 -0.000847282 5.43338e-008 -0.0737607 0.658122 0 
-0.10135 -0.0600528 0.0401713 -3.3541e-012 6.57845e-009 -5.10966e-006 0 -0 0 0 -0 0 0 -0 0 -0.712032 0.290856 -3.88256e-019 2.0324 -14.9249 -12.0919 -30.1406 -33.2095 -39.2282 16.5092 22.5732 -9.46498 -84.3997 -68.6531 75.9787 -10.5181 -7.0483 -4.25587 -11.7832 -15.7028 -12.7197 -2.26771 0.549352 -5.54474 -1.13039 -4.85192 1.59248 -10.6497 -6.7326 5.99113 4.32967 -44.9147 29.872 -2.0324 14.9249 -12.0919 30.1406 33.2095 39.2282 16.5092 -22.5732 9.46498 84.3997 68.6531 75.9787 10.5181 7.0483 4.25587 11.7832 15.7028 12.7197 2.26771 -0.549352 5.54474 1.13039 4.85192 -1.59248 10.6497 6.7326 -5.99113 -4.32967 44.9147 -29.872 0.06236 -0.658117 -0.000716277 0.0240216 -0.0863775 0.658122 0 0.0737655 -0.658117 -0.000847281 0 -0.0737607 0.658122 0 
-0.10135 -0.0600528 0.0401713 1.67252e-012 6.57845e-009 -5.10966e-006 0 -0 0 0 -0 0 0 -0 0 -0.712032 0.290856 -0 2.0324 -14.9249 -12.0919 -30.1406 -33.2095 -39.2282 16.5092 22.5732 -9.46498 -84.3997 -68.6531 75.9787 -10.5181 -7.0483 -4.25587 -11.7832 -15.7028 -12.7197 -2.26771 0.549352 -5.54474 -1.13039 -4.85192 1.59248 -10.6497 -6.7326 5.99113 4.32967 -44.9147 29.872 -2.0324 14.9249 -12.0919 30.1406 33.2095 39.2282 16.5092 -22.5732 9.46498 84.3997 68.6531 75.9787 10.5181 7.0483 4.25587 11.7832 15.7028 12.7197 2.26771 -0.549352 5.54474 1.13039 4.85192 -1.59248 10.6497 6.7326 -5.99113 -4.32967 44.9147 -29.872 0.06236 -0.658117 -0.000716277 0.0240216 -0.0863776 0.658122 0 0.0737656 -0.658117 -0.000847282 2.34843e-006 -0.0737607 0.658122 0 
-0.10135 -0.0600528 0.0401713 1.81741e-012 6.57845e-009 -5.10966e-006 0 -0 0 0 -0 0 0 -0 0 -0.712032 0.290856 -0 2.0324 -14.9249 -12.0919 -30.1406 -33.2095 -39.2282 16.5092 22.5732 -9.46498 -84.3997 -68.6531 75.9787 -10.5181 -7.0483 -4.25587 -11.7832 -15.7028 -12.7197 -2.26771 0.549352 -5.54474 -1.13039 -4.85192 1.59248 -10.6497 -6.7326 5.99113 4.32967 -44.9147 29.872 -2.0324 14.9249 -12.0919 30.1406 33.2095 39.2282 16.5092 -22.5732 9.46498 84.3997 68.6531 75.9787 10.5181 7.0483 4.25587 11.7832 15.7028 12.7197 2.26771 -0.549352 5.54474 1.13039 4.85192 -1.59248 10.6497 6.7326 -5.99113 -4.32967 44.9147 -29.872 0.0623601 -0.658117 -0.000716278 0.0240216 -0.0863776 0.658122 0 0.0737657 -0.658117 -0.000847282 2.41484e-006 -0.0737632 0.658122 0 
-0.10135 -0.0600528 0.0401713 5.48028e-012 6.57845e-009 -5.10966e-006 0 -0 0 0 -0 0 0 -0 0 -0.712032 0.290856 -3.88256e-019 2.0324 -14.9249 -12.0919 -30.1406 -33.2095 -39.2282 16.5092 22.5732 -9.46498 -84.3997 -68.6531 75.9787 -10.5181 -7.0483 -4.25587 -11.7832 -15.7028 -12.7197 -2.26771 0.549352 -5.54474 -1.13039 -4.85192 1.59248 -10.6497 -6.7326 5.99113 4.32967 -44.9147 29.872 -2.0324 14.9249 -12.0919 30.1406 33.2095 39.2282 16.5092 -22.5732 9.46498 84.3997 68.6531 75.9787 10.5181 7.0483 4.25587 11.7832 15.7028 12.7197 2.26771 -0.549352 5.54474 1.13039 4.85192 -1.59248 10.6497 6.7326 -5.99113 -4.32967 44.9147 -29.872 0.06236 -0.658117 -0.000716277 0.0240216 -0.0863776 0.658122 0 0.0737656 -0.658117 -0.000847282 2.41484e-006 -0.0737632 0.658122 0 
-0.10135 -0.0600528 0.0401713 -1.11467e-011 6.57845e-009 -5.10966e-006 0 -0 0 0 -0 0 0 -0 0 -0.712032 0.290856 -0 2.0324 -14.9249 -12.0919 -30.1406 -33.2095 -39.2282 16.5092 22.5732 -9.46498 -84.3997 -68.6531 75.9787 -10.5181 -7.0483 -4.25587 -11.7832 -15.7028 -12.7197 -2.26771 0.549352 -5.54474 -1.13039 -4.85192 1.59248 -10.6497 -6.7326 5.99113 4.32967 -44.9147 29.872 -2.0324 14.9249 -12.0919 30.1406 33.2095 39.2282 16.5092 -22.5732 9.46498 84.3997 68.6531 75.9787 10.5181 7.0483 4.25587 11.7832 15.7028 12.7197 2.26771 -0.549352 5.54474 1.13039 4.85192 -1.59248 10.6497 6.7326 -5.99113 -4.32967 44.9147 -29.872 0.0623601 -0.658117 -0.000716278 0.0240216 -0.0863776 0.658122 0 0.0737656 -0.658117 -0.000847282 1.70755e-006 -0.0737625 0.658122 0 
